<svg xmlns="http://www.w3.org/2000/svg" xmlns:xlink="http://www.w3.org/1999/xlink" width="322.868" height="101" viewBox="0 0 322.868 101">
  <defs>
    <linearGradient id="linear-gradient" y1="0.486" x2="1" y2="0.486" gradientUnits="objectBoundingBox">
      <stop offset="0" stop-color="#e8b520"/>
      <stop offset="0.072" stop-color="#e1ae24"/>
      <stop offset="0.186" stop-color="#c8992c"/>
      <stop offset="0.316" stop-color="#a87d2c"/>
      <stop offset="0.423" stop-color="#c1932d"/>
      <stop offset="0.562" stop-color="#dead26"/>
      <stop offset="0.642" stop-color="#e8b520"/>
      <stop offset="0.818" stop-color="#ca9b2c"/>
      <stop offset="1" stop-color="#a87d2c"/>
    </linearGradient>
    <linearGradient id="linear-gradient-2" x1="18.338" y1="231.358" x2="-9.498" y2="224.1" xlink:href="#linear-gradient"/>
    <linearGradient id="linear-gradient-3" x1="4.917" y1="120.908" x2="-8.049" y2="117.64" xlink:href="#linear-gradient"/>
    <linearGradient id="linear-gradient-4" x1="-4.87" y1="9.408" x2="1.929" y2="9.009" xlink:href="#linear-gradient"/>
    <linearGradient id="linear-gradient-5" x1="-16.624" y1="22.108" x2="4.731" y2="21.004" xlink:href="#linear-gradient"/>
    <linearGradient id="linear-gradient-6" x1="-20.344" y1="19.612" x2="4.008" y2="18.546" xlink:href="#linear-gradient"/>
    <linearGradient id="linear-gradient-7" x1="-4.782" y1="4.012" x2="2.16" y2="3.798" xlink:href="#linear-gradient"/>
    <linearGradient id="linear-gradient-8" x1="-9.466" y1="12.838" x2="6.613" y2="11.802" xlink:href="#linear-gradient"/>
    <linearGradient id="linear-gradient-9" x1="-4.058" y1="2.61" x2="2.62" y2="2.347" xlink:href="#linear-gradient"/>
    <linearGradient id="linear-gradient-10" x1="-3.082" y1="0.707" x2="1.963" y2="0.565" xlink:href="#linear-gradient"/>
    <linearGradient id="linear-gradient-11" x1="-10.183" y1="12.321" x2="10.034" y2="11.634" xlink:href="#linear-gradient"/>
    <linearGradient id="linear-gradient-12" x1="-4.483" y1="2.012" x2="0.639" y2="1.891" xlink:href="#linear-gradient"/>
    <linearGradient id="linear-gradient-13" x1="-5.333" y1="1.308" x2="0.513" y2="1.118" xlink:href="#linear-gradient"/>
    <linearGradient id="linear-gradient-14" x1="-7.181" y1="0.403" x2="0.591" y2="0.112" xlink:href="#linear-gradient"/>
    <linearGradient id="linear-gradient-15" x1="-4.947" y1="-0.363" x2="4.428" y2="-0.612" xlink:href="#linear-gradient"/>
    <linearGradient id="linear-gradient-16" x1="-6.054" y1="-4.795" x2="5.025" y2="-5.03" xlink:href="#linear-gradient"/>
    <linearGradient id="linear-gradient-17" x1="-4.539" y1="-2.439" x2="2.65" y2="-2.604" xlink:href="#linear-gradient"/>
    <linearGradient id="linear-gradient-18" x1="-4.316" y1="-1.06" x2="1.431" y2="-1.197" xlink:href="#linear-gradient"/>
    <linearGradient id="linear-gradient-19" x1="-6.241" y1="-0.377" x2="0.787" y2="-0.544" xlink:href="#linear-gradient"/>
    <linearGradient id="linear-gradient-20" x1="-13.553" y1="-11.68" x2="11.978" y2="-12.621" xlink:href="#linear-gradient"/>
    <linearGradient id="linear-gradient-21" x1="-20.916" y1="-9.761" x2="15.672" y2="-10.582" xlink:href="#linear-gradient"/>
    <linearGradient id="linear-gradient-22" x1="-18.979" y1="-8.555" x2="12.721" y2="-9.332" xlink:href="#linear-gradient"/>
    <linearGradient id="linear-gradient-23" x1="-20.695" y1="-12.134" x2="12.665" y2="-13.33" xlink:href="#linear-gradient"/>
    <linearGradient id="linear-gradient-24" x1="-28.954" y1="-8.596" x2="16.432" y2="-9.596" xlink:href="#linear-gradient"/>
    <linearGradient id="linear-gradient-25" x1="-0.837" y1="9.173" x2="5.962" y2="8.774" xlink:href="#linear-gradient"/>
    <linearGradient id="linear-gradient-26" x1="-3.592" y1="21.437" x2="17.763" y2="20.334" xlink:href="#linear-gradient"/>
    <linearGradient id="linear-gradient-27" x1="-2.944" y1="18.852" x2="21.276" y2="17.785" xlink:href="#linear-gradient"/>
    <linearGradient id="linear-gradient-28" x1="-1.17" y1="3.901" x2="5.756" y2="3.686" xlink:href="#linear-gradient"/>
    <linearGradient id="linear-gradient-29" x1="-5.824" y1="12.591" x2="10.256" y2="11.555" xlink:href="#linear-gradient"/>
    <linearGradient id="linear-gradient-30" x1="-1.775" y1="2.533" x2="4.903" y2="2.27" xlink:href="#linear-gradient"/>
    <linearGradient id="linear-gradient-31" x1="-1.159" y1="0.651" x2="3.885" y2="0.51" xlink:href="#linear-gradient"/>
    <linearGradient id="linear-gradient-32" x1="-8.983" y1="12.271" x2="11.235" y2="11.584" xlink:href="#linear-gradient"/>
    <linearGradient id="linear-gradient-33" x1="0.297" y1="1.895" x2="5.42" y2="1.774" xlink:href="#linear-gradient"/>
    <linearGradient id="linear-gradient-34" x1="0.288" y1="1.131" x2="6.134" y2="0.942" xlink:href="#linear-gradient"/>
    <linearGradient id="linear-gradient-35" x1="0.051" y1="0.138" x2="7.79" y2="-0.153" xlink:href="#linear-gradient"/>
    <linearGradient id="linear-gradient-36" x1="-3.894" y1="-0.406" x2="5.367" y2="-0.654" xlink:href="#linear-gradient"/>
    <linearGradient id="linear-gradient-37" x1="-5.271" y1="-4.797" x2="5.971" y2="-5.045" xlink:href="#linear-gradient"/>
    <linearGradient id="linear-gradient-38" x1="-2.303" y1="-2.484" x2="4.886" y2="-2.649" xlink:href="#linear-gradient"/>
    <linearGradient id="linear-gradient-39" x1="-0.849" y1="-1.132" x2="4.898" y2="-1.269" xlink:href="#linear-gradient"/>
    <linearGradient id="linear-gradient-40" x1="-0.222" y1="-0.508" x2="6.806" y2="-0.675" xlink:href="#linear-gradient"/>
    <linearGradient id="linear-gradient-41" x1="-12.923" y1="-11.719" x2="12.608" y2="-12.66" xlink:href="#linear-gradient"/>
    <linearGradient id="linear-gradient-42" x1="-17.909" y1="-9.842" x2="19.578" y2="-10.663" xlink:href="#linear-gradient"/>
    <linearGradient id="linear-gradient-43" x1="-14.844" y1="-8.665" x2="18.325" y2="-9.441" xlink:href="#linear-gradient"/>
    <linearGradient id="linear-gradient-44" x1="-14.059" y1="-12.369" x2="19.301" y2="-13.565" xlink:href="#linear-gradient"/>
    <linearGradient id="linear-gradient-45" x1="-18.518" y1="-8.836" x2="26.868" y2="-9.836" xlink:href="#linear-gradient"/>
  </defs>
  <g id="Logo_-_light" data-name="Logo - light" transform="translate(-10.734 -9.467)">
    <g id="Group_7" data-name="Group 7" transform="translate(113.272 26.193)">
      <path id="Path_68" data-name="Path 68" d="M130.9,54.257v-.8c1.508,0,1.81-.1,2.313-.4a1.334,1.334,0,0,0,.6-1.006,9.177,9.177,0,0,0-.8-2.916l-1.71-3.922H120.343l-1.911,4.726a5.286,5.286,0,0,0-.4,1.71c0,1.307.905,1.71,2.916,1.71v.8H112.7v-.8c2.413-.2,2.816-1.106,5.229-6.939L126.477,26.1h.8l10.257,23.431c1.207,2.715,1.71,3.62,3.922,3.821v.8H130.9Zm-5.028-22.124L121.047,43.6H130.7Z" transform="translate(-112.7 -26.1)" fill="#f2f2f2"/>
      <path id="Path_69" data-name="Path 69" d="M166.333,54.254v-.8c3.319-.2,3.721-.905,3.721-4.324v-18.7l-10.66,23.833h-.6L148.333,31.326V47.918c0,4.626.7,5.33,3.922,5.531v.8H142.5v-.8c3.419-.2,4.022-.8,4.022-5.531V31.426c0-3.218-.5-3.721-3.922-3.922v-.8h8.246L160.5,47.617,169.752,26.7H178v.8c-3.017,0-3.62.7-3.62,3.922v18.3c0,2.916.6,3.62,3.62,3.922v.8H166.333Z" transform="translate(-112.533 -26.097)" fill="#f2f2f2"/>
      <path id="Path_70" data-name="Path 70" d="M201.825,54.254H179.4v-.8c3.218-.2,3.62-.7,3.62-3.922v-18.2c0-3.117-.5-3.721-3.62-3.922v-.8h22.124l.2,5.933h-1.006c-.6-3.721-1.609-4.425-6.436-4.425h-5.43c-1.207,0-1.508.2-1.508,1.508v9.151h6.335c3.62,0,4.224-.7,4.726-4.022h1.006V44.5h-1.006c-.5-3.52-1.106-4.022-4.726-4.022h-6.335V50.634c0,1.71,1.106,1.911,4.224,1.911h1.508c5.933,0,7.743-1.106,9.654-5.531h1.207Z" transform="translate(-112.326 -26.097)" fill="#f2f2f2"/>
      <path id="Path_71" data-name="Path 71" d="M224.912,54.254l-9.956-12.872-2.313.1v8.045c0,3.218.5,3.62,3.721,3.922v.8H204.9v-.8c3.117-.2,3.52-.7,3.52-4.425v-17.7c0-3.117-.3-3.62-3.52-3.821v-.8h11.363c3.922,0,6.939,1.006,8.749,2.413a6.524,6.524,0,0,1,2.011,5.028c0,3.62-2.313,6.034-7.542,6.838l8.347,10.559a4.433,4.433,0,0,0,3.922,1.911v.8Zm-12.268-14.28c4.022-.1,5.43-.4,7.341-1.408A5.3,5.3,0,0,0,222.4,33.84c0-3.721-2.414-5.631-7.643-5.631-1.408,0-2.112.3-2.112,1.71V39.974Z" transform="translate(-112.182 -26.097)" fill="#f2f2f2"/>
      <path id="Path_72" data-name="Path 72" d="M232.6,54.254v-.8c3.52-.1,4.022-.6,4.022-3.922v-18.2c0-3.319-.5-3.62-4.022-3.821v-.8h12.369v.8c-3.52.2-4.123.7-4.123,3.821v18.3c0,3.117.7,3.721,4.123,3.922v.8H232.6Z" transform="translate(-112.027 -26.097)" fill="#f2f2f2"/>
      <path id="Path_73" data-name="Path 73" d="M272.041,49.631c-2.413,3.419-6.436,5.33-11.363,5.33a13.928,13.928,0,0,1-9.855-3.721A14.84,14.84,0,0,1,246.8,40.782a15.238,15.238,0,0,1,3.721-10.257A13.462,13.462,0,0,1,260.677,26.2a20.649,20.649,0,0,1,4.928.6,20.18,20.18,0,0,0,2.916.7,1.712,1.712,0,0,0,1.71-1.408h.8l.4,9.453h-1.006a8.314,8.314,0,0,0-2.212-4.626,9.186,9.186,0,0,0-6.738-3.218c-6.335,0-10.056,5.129-10.056,12.268,0,4.626,1.006,7.844,3.017,9.956a10.233,10.233,0,0,0,7.442,3.017c3.721,0,6.034-1.207,9.151-4.224Z" transform="translate(-111.947 -26.1)" fill="#f2f2f2"/>
      <path id="Path_74" data-name="Path 74" d="M291.4,54.257v-.8c1.508,0,1.81-.1,2.313-.4a1.334,1.334,0,0,0,.6-1.006,9.178,9.178,0,0,0-.8-2.916l-1.71-3.922H280.843l-1.911,4.726a5.286,5.286,0,0,0-.4,1.71c0,1.307.905,1.71,2.916,1.71v.8H273.2v-.8c2.413-.2,2.816-1.106,5.229-6.939L286.977,26.1h.8l10.358,23.531c1.207,2.715,1.71,3.62,3.922,3.821v.8Zm-5.028-22.124L281.547,43.6H291.2Z" transform="translate(-111.799 -26.1)" fill="#f2f2f2"/>
      <path id="Path_75" data-name="Path 75" d="M331.962,27.505c-1.609.2-2.212.3-2.715.7-.8.7-1.207,1.609-1.207,4.928V54.757h-.7l-18.4-22.928V48.02c0,4.324.7,5.028,3.922,5.43v.8H303v-.8c3.419-.4,4.022-1.006,4.022-5.43v-18.3c-1.408-1.71-2.011-2.212-4.022-2.212v-.8h7.039l16.09,20.112V32.634c0-2.112-.2-3.419-.8-4.123-.7-.8-1.508-.905-3.319-1.106v-.8h9.855v.905Z" transform="translate(-111.632 -26.097)" fill="#f2f2f2"/>
    </g>
    <g id="Group_8" data-name="Group 8" transform="translate(111.965 70.943)">
      <path id="Path_76" data-name="Path 76" d="M122.261,88.7v-.5c2.112-.1,2.313-.6,2.313-2.816V80.252h-8.045v5.43c0,1.911.3,2.413,2.313,2.514v.5H111.4v-.5c2.112-.1,2.413-.5,2.413-2.715V74.017c0-2.112-.3-2.413-2.413-2.514V71h7.442v.5c-1.911.2-2.413.5-2.413,2.514v5.028h8.045V74.017c0-2.112-.3-2.413-2.413-2.514V71H129.5v.5c-2.011.2-2.413.5-2.413,2.514V85.682c0,1.911.4,2.313,2.413,2.413v.5h-7.24Z" transform="translate(-111.4 -70.598)" fill="#f2f2f2"/>
      <path id="Path_77" data-name="Path 77" d="M142.064,88.7v-.5a3.985,3.985,0,0,0,1.508-.2.827.827,0,0,0,.4-.6,6.693,6.693,0,0,0-.5-1.911l-1.106-2.514h-6.939l-1.207,3.017a4.277,4.277,0,0,0-.2,1.106c0,.8.6,1.106,1.911,1.106v.5H130.6v-.5c1.508-.2,1.81-.7,3.319-4.425L139.449,70.8h.5l6.536,14.984c.7,1.71,1.106,2.313,2.514,2.413v.5Zm-3.218-14.179-3.017,7.341h6.134Z" transform="translate(-111.292 -70.599)" fill="#f2f2f2"/>
      <path id="Path_78" data-name="Path 78" d="M162.471,88.7l-6.335-8.246-1.508.1v5.129c0,2.011.3,2.313,2.413,2.514v.5H149.7v-.5c2.011-.2,2.313-.5,2.313-2.816V74.017c0-2.011-.2-2.313-2.313-2.413V71h7.24c2.514,0,4.425.6,5.531,1.609a4.1,4.1,0,0,1,1.307,3.218c0,2.313-1.508,3.821-4.827,4.324l5.33,6.738A2.8,2.8,0,0,0,166.8,88.1v.5h-4.324Zm-7.844-9.151c2.514-.1,3.52-.2,4.726-.905a3.238,3.238,0,0,0,1.508-3.017c0-2.413-1.609-3.62-4.928-3.62-.905,0-1.408.2-1.408,1.106v6.436Z" transform="translate(-111.185 -70.598)" fill="#f2f2f2"/>
      <path id="Path_79" data-name="Path 79" d="M181.383,75.525c-.6-2.916-1.307-3.419-4.123-3.419h-1.609V85.682c0,2.011.4,2.313,2.514,2.413v.5h-7.743v-.5c2.212-.1,2.514-.4,2.514-2.816V72.106h-1.609c-2.816,0-3.52.5-4.123,3.419h-.6L166.8,71h14.984l.2,4.525Z" transform="translate(-111.09 -70.598)" fill="#f2f2f2"/>
      <path id="Path_80" data-name="Path 80" d="M196.276,74.821c-.4-2.413-.905-2.816-4.123-2.816h-3.52c-.8,0-.905.2-.905,1.006v5.833h3.821c2.212,0,2.816-.5,3.017-2.514h.6v6.235h-.6c-.2-2.212-.7-2.615-3.017-2.615h-3.821v5.732c0,2.011.4,2.413,2.413,2.514v.5H182.7v-.5c2.011-.1,2.313-.5,2.313-2.816V74.017c0-1.911-.3-2.313-2.313-2.413V71h14.079l.1,3.821Z" transform="translate(-111 -70.598)" fill="#f2f2f2"/>
      <path id="Path_81" data-name="Path 81" d="M206.749,89C201.62,89,198,85.282,198,79.751c0-5.43,3.52-9.151,8.749-9.151s8.749,3.922,8.749,9.151C215.5,85.282,211.878,89,206.749,89Zm3.319-16.19a5.038,5.038,0,0,0-7.14.6c-1.106,1.307-1.81,3.922-1.81,6.436,0,3.218.8,5.531,2.413,7.039a5,5,0,0,0,3.319,1.207,4.7,4.7,0,0,0,3.419-1.307c1.508-1.408,2.212-3.922,2.212-7.14C212.481,76.634,211.576,74.12,210.067,72.812Z" transform="translate(-110.914 -70.6)" fill="#f2f2f2"/>
      <path id="Path_82" data-name="Path 82" d="M229.571,88.7l-6.335-8.246-1.508.1v5.129c0,2.011.3,2.313,2.413,2.514v.5H216.8v-.5c2.011-.2,2.313-.5,2.313-2.816V74.017c0-2.011-.2-2.313-2.313-2.413V71h7.24c2.514,0,4.425.6,5.531,1.609a4.1,4.1,0,0,1,1.307,3.218c0,2.313-1.508,3.821-4.827,4.324l5.33,6.738A2.8,2.8,0,0,0,233.9,88.1v.5h-4.324Zm-7.844-9.151c2.514-.1,3.52-.2,4.726-.905a3.238,3.238,0,0,0,1.508-3.017c0-2.413-1.609-3.62-4.927-3.62-.905,0-1.408.2-1.408,1.106v6.436Z" transform="translate(-110.808 -70.598)" fill="#f2f2f2"/>
      <path id="Path_83" data-name="Path 83" d="M241.64,71c3.419,0,6.134.8,8.045,2.413a8.038,8.038,0,0,1,2.615,6.335,8.121,8.121,0,0,1-3.62,7.24,12.148,12.148,0,0,1-6.738,1.71H234.5v-.5c2.112-.1,2.313-.5,2.313-2.514V74.017c0-2.112-.3-2.313-2.313-2.514V71Zm-2.212,15.386c0,.905.2,1.207,1.307,1.207,2.715,0,4.224-.3,5.833-1.408,1.911-1.207,2.816-3.319,2.816-6.335,0-2.816-.8-4.626-2.514-6.034-1.609-1.408-3.218-1.81-5.933-1.81-1.006,0-1.408.2-1.408,1.106V86.386Z" transform="translate(-110.709 -70.598)" fill="#f2f2f2"/>
    </g>
    <g id="Group_9" data-name="Group 9" transform="translate(261.701 71.949)">
      <path id="Path_84" data-name="Path 84" d="M277.7,80.449c-1.508.1-1.81.4-1.81,2.011v5.129c-1.408,1.207-3.922,1.81-6.536,1.81a9.986,9.986,0,0,1-6.939-2.715A8.488,8.488,0,0,1,260.3,80.65a8.439,8.439,0,0,1,8.849-8.95,9.02,9.02,0,0,1,3.419.6,3.652,3.652,0,0,0,1.106.3,1.49,1.49,0,0,0,1.207-.8h.6l.2,5.43h-.6a7.04,7.04,0,0,0-1.81-3.017,5.857,5.857,0,0,0-8.045.4c-1.408,1.408-2.011,3.721-2.011,6.235,0,4.827,2.715,7.643,6.738,7.643,2.011,0,3.419-.7,3.419-1.609V82.862c0-2.011-.3-2.212-2.313-2.413v-.5H277.7v.5Z" transform="translate(-260.3 -71.599)" fill="#f2f2f2"/>
      <path id="Path_85" data-name="Path 85" d="M287.247,89.4c-5.028,0-8.447-3.62-8.447-8.95,0-5.229,3.419-8.849,8.447-8.849s8.447,3.821,8.447,8.849C295.694,85.88,292.175,89.4,287.247,89.4Zm3.117-15.587a4.5,4.5,0,0,0-3.117-1.207,4.983,4.983,0,0,0-3.721,1.71,10.215,10.215,0,0,0-1.81,6.235c0,3.017.7,5.43,2.313,6.838a4.744,4.744,0,0,0,3.218,1.207,4.817,4.817,0,0,0,3.319-1.207c1.408-1.408,2.112-3.821,2.112-6.838C292.778,77.433,291.873,75.019,290.365,73.812Z" transform="translate(-260.196 -71.6)" fill="#f2f2f2"/>
      <path id="Path_86" data-name="Path 86" d="M310.577,89.1H296.7v-.5c1.911-.1,2.212-.5,2.212-2.514V75.017c0-2.011-.2-2.313-2.212-2.514V72h7.24v.5c-2.112.1-2.413.5-2.413,2.413V86.883c0,1.006.4,1.207,2.313,1.207h1.81c2.112,0,3.52-.5,4.324-1.609a9.616,9.616,0,0,0,1.106-1.911h.7Z" transform="translate(-260.096 -71.598)" fill="#f2f2f2"/>
      <path id="Path_87" data-name="Path 87" d="M319.439,72c3.319,0,5.933.8,7.743,2.313,1.71,1.408,2.514,3.419,2.514,6.134a7.745,7.745,0,0,1-3.52,6.939,12.561,12.561,0,0,1-6.536,1.609H312.4v-.5c2.011-.1,2.313-.5,2.313-2.514V74.916c0-2.011-.3-2.313-2.313-2.413V72Zm-2.011,14.883c0,.905.2,1.207,1.207,1.207,2.615,0,4.022-.3,5.631-1.307,1.81-1.207,2.715-3.218,2.715-6.134a7.028,7.028,0,0,0-2.414-5.833c-1.508-1.307-3.117-1.81-5.732-1.81-1.006,0-1.408.2-1.408,1.106V86.883Z" transform="translate(-260.007 -71.598)" fill="#f2f2f2"/>
    </g>
    <path id="Path_88" data-name="Path 88" d="M11.2,16.439s42.537-15.688,89.7,0c0,0,9.654,61.443-44.951,94.025C55.952,110.766,5.37,86.832,11.2,16.439Z" transform="translate(0 0)" fill="url(#linear-gradient)"/>
    <g id="Group_10" data-name="Group 10" transform="translate(27.494 53.144)">
      <path id="Path_89" data-name="Path 89" d="M27.8,53.1Zm-.4,2.715c.2-.2.2-.5.5-.7v0A1.8,1.8,0,0,1,27.4,55.816ZM28,52.9Z" transform="translate(-27.4 -52.9)" fill="url(#linear-gradient-2)"/>
      <path id="Path_90" data-name="Path 90" d="M67.1,66.831Zm1.106-3.218V62a.957.957,0,0,0-.2-.7.957.957,0,0,0,.2.7Z" transform="translate(-27.177 -52.853)" fill="url(#linear-gradient-3)"/>
    </g>
    <path id="Path_91" data-name="Path 91" d="M14.3,19.336s39.521-14.682,83.365,0c0,0,8.95,56.918-41.532,87.287C55.935,106.825,8.872,84.5,14.3,19.336Z" transform="translate(0.018 0.019)" fill="#fff"/>
    <g id="Group_11" data-name="Group 11" transform="translate(20.354 20.656)">
      <path id="Path_92" data-name="Path 92" d="M79.052,22.209S76.94,19.494,75.13,21.1s-5.33,4.123-5.33,4.123l2.313,3.419a3.994,3.994,0,0,1,.905-2.715C74.225,24.12,75.13,21.1,79.052,22.209Z" transform="translate(-20.022 -20.593)" fill="url(#linear-gradient-4)"/>
      <path id="Path_93" data-name="Path 93" d="M74.2,27.5s-.905,1.609-.7,1.81.905,0,1.106.2.7.905.905.905.905-1.106.905-1.106S74.405,28,74.2,27.5Z" transform="translate(-20.001 -20.554)" fill="url(#linear-gradient-5)"/>
      <path id="Path_94" data-name="Path 94" d="M77.6,30.2s-.5.7-.7.7a23.182,23.182,0,0,0,1.81,2.313c.2,0,.7-1.408.7-1.609C79.716,31.407,79.012,32.111,77.6,30.2Z" transform="translate(-19.982 -20.539)" fill="url(#linear-gradient-6)"/>
      <path id="Path_95" data-name="Path 95" d="M67.6,26.6a5.064,5.064,0,0,1,1.609,1.609c.905,1.106,1.408.7,1.408.7a11.4,11.4,0,0,0,2.112,4.626c1.609,1.81,4.123,4.324,3.922,8.045a14.645,14.645,0,0,0-3.721-5.531C70.315,33.74,67.6,31.628,67.6,26.6Z" transform="translate(-20.034 -20.56)" fill="url(#linear-gradient-7)"/>
      <path id="Path_96" data-name="Path 96" d="M64.822,39.4a1.957,1.957,0,0,1-.2,1.408,19.792,19.792,0,0,0-1.81,1.609,5.013,5.013,0,0,1-1.81,0C60.7,42.115,62.106,40.305,64.822,39.4Z" transform="translate(-20.072 -20.488)" fill="url(#linear-gradient-8)"/>
      <path id="Path_97" data-name="Path 97" d="M71.253,42.307a5.192,5.192,0,0,0-6.235-.2C62.906,44.217,61.3,46.228,62,53.368c0,0,.2-4.626,1.106-5.933.905-1.408,1.106-.5,1.106-.5s0-2.313,1.408-2.313a5.284,5.284,0,0,0,3.419-.905C69.845,43.011,70.549,42.307,71.253,42.307Z" transform="translate(-20.067 -20.478)" fill="url(#linear-gradient-9)"/>
      <path id="Path_98" data-name="Path 98" d="M73.97,46.5s-.5,3.419-1.81,5.028c-1.408,1.81-3.922,5.531-4.123,8.045s.5,6.939-1.81,9.453c0,0-.5.2-.5-.5a19.884,19.884,0,0,1-3.922.7c-1.408-.2,2.514-.2,3.721-1.408,1.106-1.106,1.408-1.408,1.408-2.514,0,0-2.715,1.408-4.324,1.106A12.663,12.663,0,0,0,66.729,64.1c1.408-1.408,0-6.436-.905-8.95a9.52,9.52,0,0,1-.7-5.028,18.623,18.623,0,0,0,2.514,6.436s2.313-3.017,3.218-4.324A13.368,13.368,0,0,0,73.97,46.5Z" transform="translate(-20.069 -20.448)" fill="url(#linear-gradient-10)"/>
      <path id="Path_99" data-name="Path 99" d="M57.005,30s-2.112.7,0,3.017,2.313,1.609,2.112,1.408a8.734,8.734,0,0,0-1.609-2.313A2.677,2.677,0,0,1,57.005,30Z" transform="translate(-20.099 -20.54)" fill="url(#linear-gradient-11)"/>
      <path id="Path_100" data-name="Path 100" d="M81.313,27.3s.5,6.637,1.609,9.453c1.408,2.715,1.81,2.514,4.123,6.436,2.313,3.721,4.626,7.542,4.123,10.76,0,0-3.721-5.933-8.548-8.045a17.57,17.57,0,0,0-1.408-3.419c-.905-1.609-3.218-3.218-1.81-7.542C80.81,30.518,81.514,28.909,81.313,27.3Z" transform="translate(-19.971 -20.556)" fill="url(#linear-gradient-12)"/>
      <path id="Path_101" data-name="Path 101" d="M80.6,45.3s9.855,6.637,10.76,11.665a30.852,30.852,0,0,1-1.81,5.33s-3.218-4.626-5.732-5.732C83.516,56.563,82.913,49.021,80.6,45.3Z" transform="translate(-19.961 -20.455)" fill="url(#linear-gradient-13)"/>
      <path id="Path_102" data-name="Path 102" d="M81,55.6a15.082,15.082,0,0,0,4.324,3.922,8.322,8.322,0,0,1,3.721,3.922l-1.408,3.218S84.218,60.93,81.2,59.321a1.921,1.921,0,0,0,0-1.106C81.3,57.712,80.8,57.008,81,55.6Z" transform="translate(-19.959 -20.397)" fill="url(#linear-gradient-14)"/>
      <path id="Path_103" data-name="Path 103" d="M62.034,59.1s1.106.2.2,2.112c-.2.5-1.408.905-1.609,2.313s-.5.905-.5.905-2.715.6-3.117,1.81c-.5,1.106-1.609,3.419,3.419,5.531,0,0,.2.5-.2.2-.5,0-3.218-.5-4.324-.2V61.111C55.6,61.111,59.018,62.318,62.034,59.1Z" transform="translate(-20.1 -20.377)" fill="url(#linear-gradient-15)"/>
      <path id="Path_104" data-name="Path 104" d="M58.416,88.9s3.017.2,2.715,9.453l-5.33,4.123C55.9,102.476,54.092,90.811,58.416,88.9Z" transform="translate(-20.102 -20.21)" fill="url(#linear-gradient-16)"/>
      <path id="Path_105" data-name="Path 105" d="M67.837,78.9l2.112,12.369S64.217,96.8,61.2,98.409C61.4,98.409,60.5,83.727,67.837,78.9Z" transform="translate(-20.07 -20.266)" fill="url(#linear-gradient-17)"/>
      <path id="Path_106" data-name="Path 106" d="M73.021,66.8s4.827,1.81,7.14,13.073a49.592,49.592,0,0,1-8.95,10.358S68.5,83.795,69.4,80.778C70.306,77.862,73.725,74.644,73.021,66.8Z" transform="translate(-20.025 -20.334)" fill="url(#linear-gradient-18)"/>
      <path id="Path_107" data-name="Path 107" d="M79.909,59.3s5.732,5.33,7.341,8.95a63.858,63.858,0,0,1-5.933,10.358s-.905-4.626-3.017-7.14A27.024,27.024,0,0,0,79.909,59.3Z" transform="translate(-19.974 -20.376)" fill="url(#linear-gradient-19)"/>
      <path id="Path_108" data-name="Path 108" d="M55.4,79.6a1.661,1.661,0,0,0,1.106-.7,7.239,7.239,0,0,1,1.106,1.81,2.2,2.2,0,0,1,0,1.609s-.2-1.106-2.313-1.106V79.6Z" transform="translate(-20.104 -20.266)" fill="url(#linear-gradient-20)"/>
      <path id="Path_109" data-name="Path 109" d="M59.107,78a17.081,17.081,0,0,1,.5,2.313,1.55,1.55,0,0,1-.905,1.609,14.493,14.493,0,0,0-.7-2.313C57.7,79.408,58,78.4,59.107,78Z" transform="translate(-20.089 -20.271)" fill="url(#linear-gradient-21)"/>
      <path id="Path_110" data-name="Path 110" d="M60.2,76.8s.5-.5.7,0,.7,1.609.7,1.609a1.51,1.51,0,0,1-.5,1.408A5.049,5.049,0,0,1,60,80.723S59.1,77.505,60.2,76.8Z" transform="translate(-20.079 -20.279)" fill="url(#linear-gradient-22)"/>
      <path id="Path_111" data-name="Path 111" d="M61.4,75.7s.5-.5,1.106.5c.7.905.5,1.408.2,1.81s-.7.2-.905.2-.5-.7-.7-.7C61.4,77.31,61.2,76.4,61.4,75.7Z" transform="translate(-20.071 -20.285)" fill="url(#linear-gradient-23)"/>
      <path id="Path_112" data-name="Path 112" d="M63.2,73l.5,2.313a1.494,1.494,0,0,1-.2.905C63.2,76.218,61.194,73.905,63.2,73Z" transform="translate(-20.064 -20.299)" fill="url(#linear-gradient-24)"/>
      <path id="Path_113" data-name="Path 113" d="M32.6,22.209s2.112-2.715,3.922-1.106,5.33,4.123,5.33,4.123l-2.313,3.419a3.994,3.994,0,0,0-.905-2.715C37.628,24.12,36.522,21.1,32.6,22.209Z" transform="translate(-20.231 -20.593)" fill="url(#linear-gradient-25)"/>
      <path id="Path_114" data-name="Path 114" d="M37.412,27.5s.905,1.609.7,1.81-.905,0-1.106.2-.7.905-.905.905S35.2,29.31,35.2,29.31,37.412,28,37.412,27.5Z" transform="translate(-20.216 -20.554)" fill="url(#linear-gradient-26)"/>
      <path id="Path_115" data-name="Path 115" d="M34.01,30.2s.5.7.7.7a18.166,18.166,0,0,1-1.81,2.313c-.2,0-.7-1.408-.7-1.609C31.9,31.407,32.6,32.111,34.01,30.2Z" transform="translate(-20.234 -20.539)" fill="url(#linear-gradient-27)"/>
      <path id="Path_116" data-name="Path 116" d="M44.051,26.6a5.064,5.064,0,0,0-1.609,1.609c-.905,1.106-1.408.7-1.408.7a11.4,11.4,0,0,1-2.112,4.626C37.313,35.349,34.8,37.863,35,41.584a14.646,14.646,0,0,1,3.721-5.531C41.335,33.74,44.352,31.628,44.051,26.6Z" transform="translate(-20.218 -20.56)" fill="url(#linear-gradient-28)"/>
      <path id="Path_117" data-name="Path 117" d="M46.8,39.4a1.957,1.957,0,0,0,.2,1.408c.5.5,1.81,1.609,1.81,1.609a5.013,5.013,0,0,0,1.81,0C50.923,42.115,49.515,40.305,46.8,39.4Z" transform="translate(-20.152 -20.488)" fill="url(#linear-gradient-29)"/>
      <path id="Path_118" data-name="Path 118" d="M40.4,42.307a5.192,5.192,0,0,1,6.235-.2c2.112,2.112,3.721,4.123,3.017,11.263,0,0-.2-4.626-1.106-5.933s-1.106-.5-1.106-.5,0-2.313-1.408-2.313c-1.408-.2-2.514-.2-3.419-.905S41.1,42.307,40.4,42.307Z" transform="translate(-20.187 -20.478)" fill="url(#linear-gradient-30)"/>
      <path id="Path_119" data-name="Path 119" d="M37.6,46.5s.5,3.419,1.81,5.028c1.408,1.81,3.922,5.531,4.123,8.045s-.5,6.939,1.81,9.453c0,0,.5.2.5-.5a19.884,19.884,0,0,0,3.922.7c1.408-.2-2.514-.2-3.721-1.408-1.106-1.106-1.408-1.408-1.408-2.514,0,0,2.715,1.408,4.324,1.106A12.663,12.663,0,0,1,44.84,64.1c-1.408-1.408,0-6.436.905-8.95a9.52,9.52,0,0,0,.7-5.028,18.623,18.623,0,0,1-2.514,6.436s-2.313-3.017-3.218-4.324A15.911,15.911,0,0,1,37.6,46.5Z" transform="translate(-20.203 -20.448)" fill="url(#linear-gradient-31)"/>
      <path id="Path_120" data-name="Path 120" d="M54.512,30s2.112.7,0,3.017S52.2,34.626,52.4,34.425a8.734,8.734,0,0,1,1.609-2.313C54.512,31.207,54.814,30.5,54.512,30Z" transform="translate(-20.12 -20.54)" fill="url(#linear-gradient-32)"/>
      <path id="Path_121" data-name="Path 121" d="M30.355,27.3s-.5,6.637-1.609,9.453c-1.106,2.715-1.81,2.514-4.123,6.436C22.31,46.909,20,50.731,20.5,53.949c0,0,3.721-5.933,8.548-8.045a17.57,17.57,0,0,1,1.408-3.419c.905-1.609,3.218-3.218,1.81-7.542C30.657,30.015,30.154,28.909,30.355,27.3Z" transform="translate(-20.299 -20.556)" fill="url(#linear-gradient-33)"/>
      <path id="Path_122" data-name="Path 122" d="M31.06,45.3S21.205,51.937,20.3,56.965a30.852,30.852,0,0,0,1.81,5.33s3.218-4.626,5.732-5.732C28.043,56.563,28.747,49.021,31.06,45.3Z" transform="translate(-20.3 -20.455)" fill="url(#linear-gradient-34)"/>
      <path id="Path_123" data-name="Path 123" d="M30.645,55.6a15.082,15.082,0,0,1-4.324,3.922A8.322,8.322,0,0,0,22.6,63.444l1.408,3.218s3.419-5.732,6.436-7.341a1.921,1.921,0,0,1,0-1.106A4.669,4.669,0,0,0,30.645,55.6Z" transform="translate(-20.287 -20.397)" fill="url(#linear-gradient-35)"/>
      <path id="Path_124" data-name="Path 124" d="M49.7,59.1s-1.106.2-.2,2.112c.2.5,1.408.905,1.609,2.313.2,1.106.5.905.5.905s2.715.7,3.218,1.81,1.609,3.419-3.419,5.531c0,0-.2.5.2.2.5,0,3.218-.5,4.324-.2V61.111S52.72,62.318,49.7,59.1Z" transform="translate(-20.138 -20.377)" fill="url(#linear-gradient-36)"/>
      <path id="Path_125" data-name="Path 125" d="M53.417,88.9s-3.218.2-3.017,9.453l5.531,4.123S57.54,90.811,53.417,88.9Z" transform="translate(-20.131 -20.21)" fill="url(#linear-gradient-37)"/>
      <path id="Path_126" data-name="Path 126" d="M43.812,78.9,41.7,91.269s5.732,5.531,8.749,7.14C50.248,98.409,51.354,83.727,43.812,78.9Z" transform="translate(-20.18 -20.266)" fill="url(#linear-gradient-38)"/>
      <path id="Path_127" data-name="Path 127" d="M38.54,66.8s-4.827,1.81-7.14,13.073a49.592,49.592,0,0,0,8.95,10.358s2.715-6.436,1.81-9.453C41.154,77.56,37.936,74.644,38.54,66.8Z" transform="translate(-20.238 -20.334)" fill="url(#linear-gradient-39)"/>
      <path id="Path_128" data-name="Path 128" d="M31.941,59.3s-5.732,5.33-7.341,8.95a63.857,63.857,0,0,0,5.933,10.358s.905-4.626,3.017-7.14A21.829,21.829,0,0,1,31.941,59.3Z" transform="translate(-20.276 -20.376)" fill="url(#linear-gradient-40)"/>
      <path id="Path_129" data-name="Path 129" d="M56.113,79.6a1.661,1.661,0,0,1-1.106-.7A7.239,7.239,0,0,0,53.9,80.71a2.2,2.2,0,0,0,0,1.609s.2-1.106,2.313-1.106V79.6Z" transform="translate(-20.112 -20.266)" fill="url(#linear-gradient-41)"/>
      <path id="Path_130" data-name="Path 130" d="M52.5,78a17.081,17.081,0,0,0-.5,2.313,1.55,1.55,0,0,0,.905,1.609,14.494,14.494,0,0,1,.7-2.313C53.81,79.408,53.609,78.4,52.5,78Z" transform="translate(-20.122 -20.271)" fill="url(#linear-gradient-42)"/>
      <path id="Path_131" data-name="Path 131" d="M51.608,76.8s-.5-.5-.7,0-.7,1.609-.7,1.609a1.51,1.51,0,0,0,.5,1.408,5.049,5.049,0,0,0,1.106.905S52.513,77.505,51.608,76.8Z" transform="translate(-20.132 -20.279)" fill="url(#linear-gradient-43)"/>
      <path id="Path_132" data-name="Path 132" d="M50.209,75.7s-.5-.5-1.106.5c-.7.905-.5,1.408-.2,1.81s.7.2.905.2.5-.7.7-.7C50.209,77.31,50.41,76.4,50.209,75.7Z" transform="translate(-20.141 -20.285)" fill="url(#linear-gradient-44)"/>
      <path id="Path_133" data-name="Path 133" d="M48.4,73l-.5,2.313a1.494,1.494,0,0,0,.2.905C48.4,76.218,50.414,73.905,48.4,73Z" transform="translate(-20.145 -20.299)" fill="url(#linear-gradient-45)"/>
    </g>
    <path id="Path_134" data-name="Path 134" d="M327.888,62.007,221.494,64.119,115.1,62.007v-.2L221.494,60.7l106.394,1.106Z" transform="translate(0.586 0.288)" fill="#f2f2f2"/>
  </g>
</svg>
